<svg width="305" height="279" viewBox="0 0 305 279" fill="none" xmlns="http://www.w3.org/2000/svg">
<path d="M0 15C0 6.71573 6.71573 0 15 0H290C298.284 0 305 6.71573 305 15V264C305 272.284 298.284 279 290 279H15C6.71573 279 0 272.284 0 264V15Z" fill="#1D1D1D"/>
<path d="M11 14.5C11 10.9101 13.9101 8 17.5 8H33.5C37.0899 8 40 10.9101 40 14.5C40 18.0899 37.0899 21 33.5 21H17.5C13.9101 21 11 18.0899 11 14.5Z" fill="#FFC800"/>
<path d="M50 14.5C50 10.9101 52.9101 8 56.5 8H111.5C115.09 8 118 10.9101 118 14.5C118 18.0899 115.09 21 111.5 21H56.5C52.9101 21 50 18.0899 50 14.5Z" fill="#323232"/>
<path d="M11 77.5C11 73.9101 13.9101 71 17.5 71H68.5C72.0899 71 75 73.9101 75 77.5V77.5C75 81.0899 72.0899 84 68.5 84H17.5C13.9101 84 11 81.0899 11 77.5V77.5Z" fill="#323232"/>
<path d="M11 110.5C11 106.91 13.9101 104 17.5 104H68.5C72.0899 104 75 106.91 75 110.5V110.5C75 114.09 72.0899 117 68.5 117H17.5C13.9101 117 11 114.09 11 110.5V110.5Z" fill="#323232"/>
<path d="M11 44.5C11 40.9101 13.9101 38 17.5 38H68.5C72.0899 38 75 40.9101 75 44.5V44.5C75 48.0899 72.0899 51 68.5 51H17.5C13.9101 51 11 48.0899 11 44.5V44.5Z" fill="#323232"/>
<path d="M97 36.5C97 34.0147 99.0147 32 101.5 32H160.5C162.985 32 165 34.0147 165 36.5C165 38.9853 162.985 41 160.5 41H101.5C99.0147 41 97 38.9853 97 36.5Z" fill="#323232"/>
<path d="M94 68C94 59.7157 100.716 53 109 53H279C287.284 53 294 59.7157 294 68V194C294 202.284 287.284 209 279 209H109C100.716 209 94 202.284 94 194V68Z" fill="#323232"/>
<path d="M97 71C97 62.7157 103.716 56 112 56H276C284.284 56 291 62.7157 291 71V191C291 199.284 284.284 206 276 206H112C103.716 206 97 199.284 97 191V71Z" fill="#282828"/>
<path d="M105 70C105 68.3431 106.343 67 108 67H282C283.657 67 285 68.3431 285 70C285 71.6569 283.657 73 282 73H108C106.343 73 105 71.6569 105 70Z" fill="#1E1E1E"/>
<path d="M105 97C105 95.3431 106.343 94 108 94H251C252.657 94 254 95.3431 254 97C254 98.6569 252.657 100 251 100H108C106.343 100 105 98.6569 105 97Z" fill="#1E1E1E"/>
<path d="M105 124C105 122.343 106.343 121 108 121H277C278.657 121 280 122.343 280 124C280 125.657 278.657 127 277 127H108C106.343 127 105 125.657 105 124Z" fill="#1E1E1E"/>
<path d="M105 151C105 149.343 106.343 148 108 148H223C224.657 148 226 149.343 226 151C226 152.657 224.657 154 223 154H108C106.343 154 105 152.657 105 151Z" fill="#1E1E1E"/>
<path d="M103 178C103 176.343 104.343 175 106 175H254C255.657 175 257 176.343 257 178C257 179.657 255.657 181 254 181H106C104.343 181 103 179.657 103 178Z" fill="#1E1E1E"/>
<path d="M0 36C2.76142 36 5 38.2386 5 41V48C5 50.7614 2.76142 53 0 53V36Z" fill="#FFC800"/>
<rect y="26" width="305" height="1" fill="#505050"/>
<rect x="83" y="27" width="1" height="252" fill="#505050"/>
</svg>
